<?xml version="1.0" encoding="UTF-8"?><svg id="Layer_1" xmlns="http://www.w3.org/2000/svg" viewBox="0 0 500 499.7"><defs><style>.cls-1{fill:#fff;}</style></defs><path class="cls-1" d="m250.3,0C113.9-1.4,3.1,110.3,0,243.3c-3.3,142.4,111.7,253.7,244.2,256.4,141.8,2.9,253.3-111.8,255.7-244.8C502.5,113.1,386.6-1.4,250.3,0h0Zm73.1,140c-.2,3.4-2.2,3.4-4.4,3.4h-34.5c-15.1,0-23.5,8.2-24.1,23.4-.3,8.7-.4,17.3-.8,25.9-.2,4,1.4,5.3,5.3,5.2h55.4c-2,12.5-3.7,24.3-5.6,36-.5,3.4-1.1,6.8-1.4,10.2-.4,3.5-1.8,5.4-5.9,5.3-13.8-.3-27.8,0-41.7,0s-5.9,0-5.9,5.9v145.6c0,4.2-2.1,6.4-6.4,6.4h-37.6c-4.3,0-6.5-2.1-6.5-6.3v-145.2c0-4.3-2.2-6.5-6.6-6.5h-21.5c-3.2.1-4.2-1.1-4.2-4.2v-43c0-3.5,1.4-4.3,4.6-4.2,7.6,0,15.3-.1,22.8,0,3.6.1,4.9-1.3,4.9-5-.2-12.1-.3-24.3,0-36.3.3-11.2,2-22.3,6.1-32.8,7.1-18.1,20.6-29,39.7-30.4,21.5-1.6,43.2-1,64.9-1.1,1.1,0,3,2,3.1,3.1.2,14.9.1,29.9.1,44.8h.1Z"/></svg>