<?xml version="1.0" encoding="UTF-8"?><svg id="Layer_1" xmlns="http://www.w3.org/2000/svg" viewBox="0 0 499.6 500"><defs><style>.cls-1{fill:#fff;}</style></defs><path class="cls-1" d="m255.9,0C113.9-2.9,2.8,111.8,0,244.3c-2.9,141.9,111.9,253.2,244.8,255.7,141.7,2.5,256.4-113.5,254.8-250C500.8,113.7,389.1,3,255.9,0Zm183.7,250v73.5c0,51.2-36.3,100.6-91.6,113.2-8.4,1.9-17.3,2.7-26.1,2.7-48.5.2-97,0-145.6,0s-103.4-39.1-114-96.2c-1.3-6.9-1.9-14.2-1.9-21.3-.2-48.6,0-97.1,0-145.7s38.8-103.4,96-114.1c6.9-1.3,14.2-1.9,21.3-1.9,48.7-.2,97.4,0,146.2,0s103.4,39,113.9,96.3c1.3,6.9,1.8,14.2,1.9,21.3.2,18,.1,36.1.1,54.1v18h-.1Z"/><path class="cls-1" d="m403,159.6c-9.2-38.7-42.8-65-82.7-65s-92.3-.1-138.5,0c-4.3,0-8.7.3-12.9.8-42.2,4.8-74.4,40.7-74.4,83.2-.1,47.7-.1,95.4,0,143,0,4.6.3,9.3,1.2,13.8,8,42.1,42,70.2,84.8,70.2h140.3c4.6-.1,9.3-.3,13.8-1.1,40.6-6.5,70.9-41.9,70.9-83s0-95.2-.2-142.9c0-6.4-.9-12.8-2.3-19h0Zm-58.4,92.7c-1.1,50.4-43.1,93.7-97.2,92.4-50.1-1.2-93.5-43.1-92.1-97.4,1.3-50.1,42.8-92.2,94.9-91.8,51.8-.2,95.6,42.8,94.4,96.9h0Zm7.6-92.4c-6-.2-12.1-6.3-12.1-12.3s5.6-11.9,12.1-12c6.9,0,12.2,5,12.2,12s-5.7,12.5-12.2,12.3Z"/><path class="cls-1" d="m250.3,189.9c-33.4-.2-60.1,25.3-60.5,59.7-.2,33.9,25.9,60.5,60,60.6,33.8,0,59.4-26.1,60.5-59.9-.9-33.6-25.8-60.1-60-60.3h0Z"/></svg>